{
  "accessors": [
    {
      "bufferView": 2,
      "componentType": 5126,
      "count": 225,
      "max": [
        0.7314710021018982,
        0.28360700607299805,
        0.28360700607299805
      ],
      "min": [
        0.6655279994010925,
        -0.28360700607299805,
        -0.28360700607299805
      ],
      "type": "VEC3"
    },
    {
      "bufferView": 2,
      "byteOffset": 2700,
      "componentType": 5126,
      "count": 225,
      "max": [
        1.0,
        1.0,
        1.0
      ],
      "min": [
        -1.0,
        -1.0,
        -1.0
      ],
      "type": "VEC3"
    },
    {
      "bufferView": 3,
      "componentType": 5126,
      "count": 225,
      "max": [
        0.012620020657777786,
        0.9999977946281433,
        1.0,
        1.0
      ],
      "min": [
        -0.012620018795132637,
        -0.9999977350234985,
        -1.0,
        -1.0
      ],
      "type": "VEC4"
    },
    {
      "bufferView": 1,
      "componentType": 5126,
      "count": 225,
      "max": [
        0.9762089848518372,
        0.9690150022506714
      ],
      "min": [
        0.035487398505210876,
        0.02599239908158779
      ],
      "type": "VEC2"
    },
    {
      "bufferView": 0,
      "componentType": 5125,
      "count": 660,
      "type": "SCALAR"
    },
    {
      "bufferView": 2,
      "byteOffset": 5400,
      "componentType": 5126,
      "count": 251,
      "max": [
        0.7314710021018982,
        0.06832549721002579,
        0.07125809788703918
      ],
      "min": [
        -0.7314710021018982,
        -0.06831789761781693,
        -0.06856609880924225
      ],
      "type": "VEC3"
    },
    {
      "bufferView": 2,
      "byteOffset": 8412,
      "componentType": 5126,
      "count": 251,
      "max": [
        1.0,
        1.0,
        1.0
      ],
      "min": [
        -1.0,
        -1.0,
        -1.0
      ],
      "type": "VEC3"
    },
    {
      "bufferView": 3,
      "byteOffset": 3600,
      "componentType": 5126,
      "count": 251,
      "max": [
        0.03894250467419624,
        1.0,
        1.0,
        1.0
      ],
      "min": [
        -0.03894250467419624,
        -1.0,
        -1.0,
        -1.0
      ],
      "type": "VEC4"
    },
    {
      "bufferView": 1,
      "byteOffset": 1800,
      "componentType": 5126,
      "count": 251,
      "max": [
        0.9627000093460083,
        1.6036499738693237
      ],
      "min": [
        -0.9375870227813721,
        0.003991629928350449
      ],
      "type": "VEC2"
    },
    {
      "bufferView": 0,
      "byteOffset": 2640,
      "componentType": 5125,
      "count": 711,
      "type": "SCALAR"
    },
    {
      "bufferView": 2,
      "byteOffset": 11424,
      "componentType": 5126,
      "count": 267,
      "max": [
        -0.6655279994010925,
        0.28360700607299805,
        0.28360700607299805
      ],
      "min": [
        -0.7314710021018982,
        -0.28360700607299805,
        -0.28360700607299805
      ],
      "type": "VEC3"
    },
    {
      "bufferView": 2,
      "byteOffset": 14628,
      "componentType": 5126,
      "count": 267,
      "max": [
        1.0,
        1.0,
        1.0
      ],
      "min": [
        -1.0,
        -1.0,
        -1.0
      ],
      "type": "VEC3"
    },
    {
      "bufferView": 3,
      "byteOffset": 7616,
      "componentType": 5126,
      "count": 267,
      "max": [
        0.028991373255848885,
        0.9999973773956299,
        1.0,
        1.0
      ],
      "min": [
        -0.029183192178606987,
        -0.9999973773956299,
        -1.0,
        -1.0
      ],
      "type": "VEC4"
    },
    {
      "bufferView": 1,
      "byteOffset": 3808,
      "componentType": 5126,
      "count": 267,
      "max": [
        0.9789760112762451,
        0.9762619733810425
      ],
      "min": [
        0.04229800030589104,
        0.029072899371385574
      ],
      "type": "VEC2"
    },
    {
      "bufferView": 0,
      "byteOffset": 5484,
      "componentType": 5125,
      "count": 780,
      "type": "SCALAR"
    },
    {
      "bufferView": 2,
      "byteOffset": 17832,
      "componentType": 5126,
      "count": 369,
      "max": [
        1.0,
        0.031510401517152786,
        0.03336549922823906
      ],
      "min": [
        -1.0,
        -0.03522060066461563,
        -0.033365398645401
      ],
      "type": "VEC3"
    },
    {
      "bufferView": 2,
      "byteOffset": 22260,
      "componentType": 5126,
      "count": 369,
      "max": [
        1.0,
        1.0,
        1.0
      ],
      "min": [
        -1.0,
        -1.0,
        -1.0
      ],
      "type": "VEC3"
    },
    {
      "bufferView": 3,
      "byteOffset": 11888,
      "componentType": 5126,
      "count": 369,
      "max": [
        0.01611454226076603,
        1.0,
        1.0,
        1.0
      ],
      "min": [
        -0.015516364946961403,
        -0.9999854564666748,
        -1.0,
        -1.0
      ],
      "type": "VEC4"
    },
    {
      "bufferView": 1,
      "byteOffset": 5944,
      "componentType": 5126,
      "count": 369,
      "max": [
        0.9782779812812805,
        1.9897099733352661
      ],
      "min": [
        -0.8731780052185059,
        0.15399199724197388
      ],
      "type": "VEC2"
    },
    {
      "bufferView": 0,
      "byteOffset": 8604,
      "componentType": 5125,
      "count": 1089,
      "type": "SCALAR"
    }
  ],
  "asset": {
    "extras": {
      "author": "jemongolfin98 (https://sketchfab.com/jemongolfin98)",
      "license": "CC-BY-4.0 (http://creativecommons.org/licenses/by/4.0/)",
      "source": "https://sketchfab.com/3d-models/jg-project6-a-3f92887511f140b99f2e296ef90d4540",
      "title": "JG-Project6-A"
    },
    "generator": "Sketchfab-12.66.0",
    "version": "2.0"
  },
  "bufferViews": [
    {
      "buffer": 0,
      "byteLength": 12960,
      "name": "floatBufferViews",
      "target": 34963
    },
    {
      "buffer": 0,
      "byteLength": 8896,
      "byteOffset": 12960,
      "byteStride": 8,
      "name": "floatBufferViews",
      "target": 34962
    },
    {
      "buffer": 0,
      "byteLength": 26688,
      "byteOffset": 21856,
      "byteStride": 12,
      "name": "floatBufferViews",
      "target": 34962
    },
    {
      "buffer": 0,
      "byteLength": 17792,
      "byteOffset": 48544,
      "byteStride": 16,
      "name": "floatBufferViews",
      "target": 34962
    }
  ],
  "buffers": [
    {
      "byteLength": 66336,
      "uri": "scene.bin"
    }
  ],
  "images": [
    {
      "uri": "textures/aiStandardSurface3_baseColor.jpeg"
    },
    {
      "uri": "textures/aiStandardSurface3_metallicRoughness.png"
    },
    {
      "uri": "textures/aiStandardSurface3_normal.png"
    },
    {
      "uri": "textures/aiStandardSurface2_metallicRoughness.png"
    },
    {
      "uri": "textures/aiStandardSurface2_normal.png"
    },
    {
      "uri": "textures/lambert1_baseColor.jpeg"
    },
    {
      "uri": "textures/lambert1_metallicRoughness.png"
    },
    {
      "uri": "textures/lambert1_normal.png"
    },
    {
      "uri": "textures/aiStandardSurface1_metallicRoughness.png"
    },
    {
      "uri": "textures/aiStandardSurface1_normal.png"
    }
  ],
  "materials": [
    {
      "doubleSided": true,
      "name": "aiStandardSurface3",
      "normalTexture": {
        "index": 2
      },
      "occlusionTexture": {
        "index": 1
      },
      "pbrMetallicRoughness": {
        "baseColorTexture": {
          "index": 0
        },
        "metallicRoughnessTexture": {
          "index": 1
        }
      }
    },
    {
      "doubleSided": true,
      "name": "aiStandardSurface2",
      "normalTexture": {
        "index": 4
      },
      "occlusionTexture": {
        "index": 3
      },
      "pbrMetallicRoughness": {
        "baseColorFactor": [
          0.0295568344378088,
          0.02518685962736162,
          0.02518685962736162,
          1.0
        ],
        "metallicRoughnessTexture": {
          "index": 3
        },
        "roughnessFactor": 0.7653030395507813
      }
    },
    {
      "doubleSided": true,
      "name": "lambert1",
      "normalTexture": {
        "index": 7
      },
      "occlusionTexture": {
        "index": 6
      },
      "pbrMetallicRoughness": {
        "baseColorTexture": {
          "index": 5
        },
        "metallicRoughnessTexture": {
          "index": 6
        }
      }
    },
    {
      "doubleSided": true,
      "name": "aiStandardSurface1",
      "normalTexture": {
        "index": 9
      },
      "occlusionTexture": {
        "index": 8
      },
      "pbrMetallicRoughness": {
        "baseColorFactor": [
          0.02911849717972865,
          0.02522166275221759,
          0.02522166275221759,
          1.0
        ],
        "metallicRoughnessTexture": {
          "index": 8
        },
        "roughnessFactor": 0.735000009247751
      }
    }
  ],
  "meshes": [
    {
      "name": "defaultMaterial",
      "primitives": [
        {
          "attributes": {
            "NORMAL": 1,
            "POSITION": 0,
            "TANGENT": 2,
            "TEXCOORD_0": 3
          },
          "indices": 4,
          "material": 3,
          "mode": 4
        }
      ]
    },
    {
      "name": "defaultMaterial",
      "primitives": [
        {
          "attributes": {
            "NORMAL": 6,
            "POSITION": 5,
            "TANGENT": 7,
            "TEXCOORD_0": 8
          },
          "indices": 9,
          "material": 2,
          "mode": 4
        }
      ]
    },
    {
      "name": "defaultMaterial",
      "primitives": [
        {
          "attributes": {
            "NORMAL": 11,
            "POSITION": 10,
            "TANGENT": 12,
            "TEXCOORD_0": 13
          },
          "indices": 14,
          "material": 1,
          "mode": 4
        }
      ]
    },
    {
      "name": "defaultMaterial",
      "primitives": [
        {
          "attributes": {
            "NORMAL": 16,
            "POSITION": 15,
            "TANGENT": 17,
            "TEXCOORD_0": 18
          },
          "indices": 19,
          "material": 0,
          "mode": 4
        }
      ]
    }
  ],
  "nodes": [
    {
      "children": [
        1
      ],
      "matrix": [
        1.0,
        0.0,
        0.0,
        0.0,
        0.0,
        2.220446049250313e-16,
        -1.0,
        0.0,
        0.0,
        1.0,
        2.220446049250313e-16,
        0.0,
        0.0,
        0.0,
        0.0,
        1.0
      ],
      "name": "Sketchfab_model"
    },
    {
      "children": [
        2,
        4,
        6,
        8
      ],
      "matrix": [
        1.0,
        0.0,
        0.0,
        0.0,
        0.0,
        -4.371139006309477e-08,
        0.999999999999999,
        0.0,
        0.0,
        -0.999999999999999,
        -4.371139006309477e-08,
        0.0,
        0.0,
        0.0,
        0.0,
        1.0
      ],
      "name": "Collada visual scene group"
    },
    {
      "children": [
        3
      ],
      "name": "pCylinder7"
    },
    {
      "mesh": 0,
      "name": "defaultMaterial"
    },
    {
      "children": [
        5
      ],
      "name": "pCylinder7"
    },
    {
      "mesh": 1,
      "name": "defaultMaterial"
    },
    {
      "children": [
        7
      ],
      "name": "pCylinder7"
    },
    {
      "mesh": 2,
      "name": "defaultMaterial"
    },
    {
      "children": [
        9
      ],
      "name": "pCylinder7"
    },
    {
      "mesh": 3,
      "name": "defaultMaterial"
    }
  ],
  "samplers": [
    {
      "magFilter": 9729,
      "minFilter": 9987,
      "wrapS": 10497,
      "wrapT": 10497
    }
  ],
  "scene": 0,
  "scenes": [
    {
      "name": "Sketchfab_Scene",
      "nodes": [
        0
      ]
    }
  ],
  "textures": [
    {
      "sampler": 0,
      "source": 0
    },
    {
      "sampler": 0,
      "source": 1
    },
    {
      "sampler": 0,
      "source": 2
    },
    {
      "sampler": 0,
      "source": 3
    },
    {
      "sampler": 0,
      "source": 4
    },
    {
      "sampler": 0,
      "source": 5
    },
    {
      "sampler": 0,
      "source": 6
    },
    {
      "sampler": 0,
      "source": 7
    },
    {
      "sampler": 0,
      "source": 8
    },
    {
      "sampler": 0,
      "source": 9
    }
  ]
}
