{
  "accessors": [
    {
      "bufferView": 2,
      "componentType": 5126,
      "count": 1172,
      "max": [
        0.6506080031394958,
        0.5442889928817749,
        0.6608989834785461
      ],
      "min": [
        -0.6405349969863892,
        -0.5442889928817749,
        -0.6608989834785461
      ],
      "type": "VEC3"
    },
    {
      "bufferView": 2,
      "byteOffset": 14064,
      "componentType": 5126,
      "count": 1172,
      "max": [
        1.0,
        1.0,
        1.0
      ],
      "min": [
        -1.0,
        -1.0,
        -1.0
      ],
      "type": "VEC3"
    },
    {
      "bufferView": 3,
      "componentType": 5126,
      "count": 1172,
      "max": [
        1.0,
        1.0,
        1.0,
        1.0
      ],
      "min": [
        -0.8588977456092834,
        -1.0,
        -1.0,
        1.0
      ],
      "type": "VEC4"
    },
    {
      "bufferView": 1,
      "componentType": 5126,
      "count": 1172,
      "max": [
        0.9980080127716064,
        0.9399200081825256
      ],
      "min": [
        0.0019920000340789557,
        0.0018759999657049775
      ],
      "type": "VEC2"
    },
    {
      "bufferView": 0,
      "componentType": 5125,
      "count": 2697,
      "type": "SCALAR"
    },
    {
      "bufferView": 2,
      "byteOffset": 28128,
      "componentType": 5126,
      "count": 3704,
      "max": [
        1.0,
        0.48878100514411926,
        -0.17235800623893738
      ],
      "min": [
        -1.0,
        0.1218930035829544,
        -0.5392460227012634
      ],
      "type": "VEC3"
    },
    {
      "bufferView": 2,
      "byteOffset": 72576,
      "componentType": 5126,
      "count": 3704,
      "max": [
        1.0,
        1.0,
        1.0
      ],
      "min": [
        -1.0,
        -1.0,
        -1.0
      ],
      "type": "VEC3"
    },
    {
      "bufferView": 3,
      "byteOffset": 18752,
      "componentType": 5126,
      "count": 3704,
      "max": [
        1.0,
        1.0,
        1.0,
        1.0
      ],
      "min": [
        -0.6920727491378784,
        -1.0,
        -1.0,
        1.0
      ],
      "type": "VEC4"
    },
    {
      "bufferView": 1,
      "byteOffset": 9376,
      "componentType": 5126,
      "count": 3704,
      "max": [
        0.9980080127716064,
        0.9127150177955627
      ],
      "min": [
        0.0019920000340789557,
        0.0018220000201836228
      ],
      "type": "VEC2"
    },
    {
      "bufferView": 0,
      "byteOffset": 10788,
      "componentType": 5125,
      "count": 9828,
      "type": "SCALAR"
    }
  ],
  "asset": {
    "extras": {
      "author": "Chad Green (https://sketchfab.com/WhimzE)",
      "license": "CC-BY-4.0 (http://creativecommons.org/licenses/by/4.0/)",
      "source": "https://sketchfab.com/3d-models/bench-press-e6c409f6d6b0469cb401dbd736286e06",
      "title": "Bench Press"
    },
    "generator": "Sketchfab-12.66.0",
    "version": "2.0"
  },
  "bufferViews": [
    {
      "buffer": 0,
      "byteLength": 50100,
      "name": "floatBufferViews",
      "target": 34963
    },
    {
      "buffer": 0,
      "byteLength": 39008,
      "byteOffset": 50100,
      "byteStride": 8,
      "name": "floatBufferViews",
      "target": 34962
    },
    {
      "buffer": 0,
      "byteLength": 117024,
      "byteOffset": 89108,
      "byteStride": 12,
      "name": "floatBufferViews",
      "target": 34962
    },
    {
      "buffer": 0,
      "byteLength": 78016,
      "byteOffset": 206132,
      "byteStride": 16,
      "name": "floatBufferViews",
      "target": 34962
    }
  ],
  "buffers": [
    {
      "byteLength": 284148,
      "uri": "scene.bin"
    }
  ],
  "images": [
    {
      "uri": "textures/lambert2SG_baseColor.jpeg"
    },
    {
      "uri": "textures/lambert2SG_metallicRoughness.png"
    },
    {
      "uri": "textures/lambert2SG_normal.png"
    },
    {
      "uri": "textures/initialShadingGroup_baseColor.jpeg"
    },
    {
      "uri": "textures/initialShadingGroup_metallicRoughness.png"
    },
    {
      "uri": "textures/initialShadingGroup_normal.png"
    }
  ],
  "materials": [
    {
      "doubleSided": true,
      "name": "lambert2SG",
      "normalTexture": {
        "index": 2
      },
      "occlusionTexture": {
        "index": 1
      },
      "pbrMetallicRoughness": {
        "baseColorTexture": {
          "index": 0
        },
        "metallicRoughnessTexture": {
          "index": 1
        }
      }
    },
    {
      "doubleSided": true,
      "name": "initialShadingGroup",
      "normalTexture": {
        "index": 5
      },
      "occlusionTexture": {
        "index": 4
      },
      "pbrMetallicRoughness": {
        "baseColorTexture": {
          "index": 3
        },
        "metallicRoughnessTexture": {
          "index": 4
        }
      }
    }
  ],
  "meshes": [
    {
      "name": "defaultMaterial",
      "primitives": [
        {
          "attributes": {
            "NORMAL": 1,
            "POSITION": 0,
            "TANGENT": 2,
            "TEXCOORD_0": 3
          },
          "indices": 4,
          "material": 1,
          "mode": 4
        }
      ]
    },
    {
      "name": "defaultMaterial",
      "primitives": [
        {
          "attributes": {
            "NORMAL": 6,
            "POSITION": 5,
            "TANGENT": 7,
            "TEXCOORD_0": 8
          },
          "indices": 9,
          "material": 0,
          "mode": 4
        }
      ]
    }
  ],
  "nodes": [
    {
      "children": [
        1
      ],
      "matrix": [
        1.0,
        0.0,
        0.0,
        0.0,
        0.0,
        2.220446049250313e-16,
        -1.0,
        0.0,
        0.0,
        1.0,
        2.220446049250313e-16,
        0.0,
        0.0,
        0.0,
        0.0,
        1.0
      ],
      "name": "Sketchfab_model"
    },
    {
      "children": [
        2,
        4
      ],
      "matrix": [
        1.0,
        0.0,
        0.0,
        0.0,
        0.0,
        -4.371139006309477e-08,
        0.999999999999999,
        0.0,
        0.0,
        -0.999999999999999,
        -4.371139006309477e-08,
        0.0,
        0.0,
        0.0,
        0.0,
        1.0
      ],
      "name": "Collada visual scene group"
    },
    {
      "children": [
        3
      ],
      "name": "g"
    },
    {
      "mesh": 0,
      "name": "defaultMaterial"
    },
    {
      "children": [
        5
      ],
      "name": "g"
    },
    {
      "mesh": 1,
      "name": "defaultMaterial"
    }
  ],
  "samplers": [
    {
      "magFilter": 9729,
      "minFilter": 9987,
      "wrapS": 10497,
      "wrapT": 10497
    }
  ],
  "scene": 0,
  "scenes": [
    {
      "name": "Sketchfab_Scene",
      "nodes": [
        0
      ]
    }
  ],
  "textures": [
    {
      "sampler": 0,
      "source": 0
    },
    {
      "sampler": 0,
      "source": 1
    },
    {
      "sampler": 0,
      "source": 2
    },
    {
      "sampler": 0,
      "source": 3
    },
    {
      "sampler": 0,
      "source": 4
    },
    {
      "sampler": 0,
      "source": 5
    }
  ]
}
